<?xml version="1.0" encoding="utf-8"?>
<!-- Generator: Adobe Illustrator 25.2.0, SVG Export Plug-In . SVG Version: 6.00 Build 0)  -->
<svg version="1.1" id="Layer_1" xmlns="http://www.w3.org/2000/svg" xmlns:xlink="http://www.w3.org/1999/xlink" x="0px" y="0px"
	 viewBox="0 0 512 512" style="enable-background:new 0 0 512 512;" xml:space="preserve">
<style type="text/css">
	.st0{fill:#00B4D8;}
</style>
<g>
	<path class="st0" d="M41.5,243.8c29.8,0,34-16.4,34-31.1c0-11.8-1.7-23.5-3.4-35.3c-1.7-11.8-3.4-23.1-3.4-34.9
		c0-38.6,25.2-55,60.9-55h8.8v23.1H131c-24.8,0-33.2,13.4-33.2,36.1c0,9.7,1.3,19.7,2.9,29.8c1.7,10.5,2.9,20.6,2.9,31.9
		c0.4,26.9-11.3,40.3-30.2,45.4v0.8c18.9,4.6,30.7,18.9,30.2,45.8c0,11.3-1.3,21.8-2.9,31.9c-1.7,10.5-2.9,20.2-2.9,30.2
		c0,23.5,9.7,36.5,33.2,36.5h7.6v23.1h-8.8c-34.9,0-60.9-15.1-60.9-57.5c0-11.3,1.7-23.1,3.4-34.4c1.7-11.3,3.4-22.7,3.4-34
		c0-13-4.2-31.1-34-31.1V243.8z"/>
</g>
<g>
	<path class="st0" d="M475.3,262.2c-29.8,0-34,18.1-34,31.1c0,11.3,1.7,22.7,3.4,34c1.7,11.3,3.4,23.1,3.4,34.4
		c0,42.4-26.5,57.5-60.9,57.5h-8.8v-23.1h7.1c23.5-0.4,33.6-13,33.6-36.5c0-10.1-1.7-19.7-2.9-30.2c-1.7-10.1-3.4-20.6-3.4-31.9
		c0-26.9,11.8-41.2,30.2-45.8v-0.8c-18.5-5-30.2-18.5-30.2-45.4c0-11.3,1.7-21.4,3.4-31.9c1.3-10.1,2.9-20.2,2.9-29.8
		c0-22.7-8.8-35.7-33.2-36.1h-7.6V84.5h8.4c35.7,0,61.3,16.4,61.3,55c0,11.8-1.7,23.1-3.4,34.9c-1.7,11.8-3.4,23.5-3.4,35.3
		c0,14.7,4.2,31.1,34,31.1V262.2z"/>
</g>
<g>
	<path class="st0" d="M122.8,328.4c-1.5,0-2.7-0.5-3.6-1.4c-0.9-0.9-1.4-2.2-1.4-3.6V192.1c0-1.5,0.5-2.7,1.4-3.6
		c0.9-0.9,2.2-1.4,3.6-1.4h53.5c16.8,0,30.1,3.9,39.8,11.6c9.7,7.7,14.5,18.9,14.5,33.4c0,9.8-2.4,18-7.1,24.6
		c-4.7,6.6-11,11.5-19,14.7l28.5,50.5c0.4,0.8,0.6,1.5,0.6,2.2c0,1.1-0.4,2.1-1.2,2.9c-0.8,0.9-1.8,1.3-3,1.3H207
		c-2.4,0-4.2-0.6-5.5-1.9c-1.2-1.3-2.1-2.5-2.6-3.5l-24.6-46.3h-24.4v46.7c0,1.5-0.5,2.7-1.4,3.6c-0.9,0.9-2.2,1.4-3.6,1.4H122.8z
		 M149.8,251.1h25.9c7.4,0,12.9-1.7,16.5-5c3.6-3.4,5.4-8.1,5.4-14.1s-1.8-10.8-5.3-14.3c-3.5-3.5-9-5.3-16.6-5.3h-25.9V251.1z"/>
	<path class="st0" d="M260.5,328.4c-1.3,0-2.5-0.5-3.5-1.4c-1-0.9-1.5-2.2-1.5-3.6V192.1c0-1.5,0.5-2.7,1.5-3.6
		c1-0.9,2.2-1.4,3.5-1.4h18.8c2,0,3.5,0.5,4.5,1.6c1,1.1,1.7,1.9,2.1,2.4l37.2,68.5l37.6-68.5c0.3-0.5,0.9-1.3,1.9-2.4
		c1-1.1,2.5-1.6,4.5-1.6H386c1.5,0,2.7,0.5,3.6,1.4c0.9,0.9,1.4,2.2,1.4,3.6v131.3c0,1.5-0.5,2.7-1.4,3.6c-0.9,0.9-2.2,1.4-3.6,1.4
		h-20.6c-1.3,0-2.5-0.5-3.4-1.4c-0.9-0.9-1.4-2.2-1.4-3.6v-81.6l-25.7,48.1c-0.7,1.2-1.5,2.3-2.6,3.2c-1.1,0.9-2.5,1.4-4.2,1.4h-9.5
		c-1.8,0-3.2-0.5-4.2-1.4c-1.1-0.9-2-2-2.6-3.2L286,241.8v81.6c0,1.5-0.5,2.7-1.4,3.6c-0.9,0.9-2.1,1.4-3.4,1.4H260.5z"/>
</g>
<g>
</g>
<g>
</g>
<g>
</g>
<g>
</g>
<g>
</g>
<g>
</g>
<g>
</g>
<g>
</g>
<g>
</g>
<g>
</g>
<g>
</g>
<g>
</g>
<g>
</g>
<g>
</g>
<g>
</g>
</svg>
